<?xml version="1.0" standalone="no"?>
<!DOCTYPE svg PUBLIC "-//W3C//DTD SVG 20010904//EN"
 "http://www.w3.org/TR/2001/REC-SVG-20010904/DTD/svg10.dtd">
<svg version="1.0" xmlns="http://www.w3.org/2000/svg"
 width="325.000000pt" height="381.000000pt" viewBox="0 0 325.000000 381.000000"
 preserveAspectRatio="xMidYMid meet">

<g transform="translate(0.000000,381.000000) scale(0.100000,-0.100000)"
fill="#000000" stroke="none">
<path d="M786 3105 c-75 -31 -137 -91 -171 -166 -25 -57 -26 -61 -26 -304 l-1
-246 -26 -11 c-88 -33 -159 -74 -202 -114 -196 -183 -202 -472 -14 -661 59
-60 165 -123 205 -123 9 0 21 -6 27 -13 7 -8 11 -145 11 -406 l1 -393 26 -59
c34 -75 102 -139 177 -168 57 -21 68 -21 697 -21 l640 0 56 22 c82 33 155 107
184 186 l23 62 161 1 c221 1 256 5 300 40 14 11 35 38 46 60 19 36 20 60 20
454 0 328 -3 422 -14 448 -17 42 -66 83 -114 97 -23 6 -246 10 -608 10 -487 0
-578 -2 -615 -15 -55 -20 -77 -40 -100 -90 -17 -36 -19 -71 -19 -352 l0 -313
-340 0 -340 0 2 221 3 222 40 14 c150 50 263 171 305 325 21 78 10 221 -23
293 -58 124 -133 197 -259 250 -67 28 -68 28 -68 67 l0 38 720 0 720 0 0 -116
c0 -114 0 -116 29 -145 39 -38 79 -38 120 0 l31 29 0 314 c0 254 -3 324 -15
366 -22 73 -88 150 -160 187 l-59 30 -655 2 -656 3 -59 -25z m1350 -181 c59
-43 69 -68 72 -175 3 -78 1 -99 -10 -99 -7 0 -331 -1 -720 -3 l-708 -2 0 100
c0 116 15 151 77 184 37 20 54 20 650 18 600 -2 612 -2 639 -23z m-1344 -748
c96 -47 152 -139 152 -251 -1 -84 -18 -128 -74 -189 -130 -141 -374 -100 -450
76 -66 153 13 328 170 379 42 14 162 5 202 -15z m1948 -641 l0 -75 -545 0
c-300 0 -548 0 -551 0 -5 0 -8 111 -5 145 1 3 249 5 551 5 l550 0 0 -75z m0
-460 l0 -195 -552 0 -553 0 2 192 c2 106 3 194 3 196 0 1 248 2 550 2 l550 0
0 -195z m-1275 -270 c21 -56 66 -92 131 -105 27 -5 172 -8 322 -7 187 1 272
-1 272 -9 0 -18 -55 -64 -91 -74 -20 -6 -268 -10 -624 -10 l-590 0 -40 23
c-54 30 -75 75 -75 160 l0 67 339 0 338 0 18 -45z"/>
<path d="M637 2152 c-2 -4 -2 -17 -1 -30 1 -16 -6 -26 -22 -32 -30 -12 -44
-40 -44 -88 0 -43 21 -67 89 -104 40 -22 41 -48 3 -48 -16 0 -37 7 -48 15 -27
21 -31 19 -44 -20 -14 -41 -4 -59 35 -69 18 -5 25 -13 25 -31 0 -22 4 -25 40
-25 35 0 40 3 40 23 0 13 14 33 35 50 69 55 54 137 -35 182 -28 14 -50 30 -50
36 0 12 51 8 81 -5 12 -5 18 -1 23 17 3 14 9 32 12 41 4 12 -3 20 -27 30 -24
10 -34 21 -34 38 0 20 -5 23 -38 25 -20 0 -38 -2 -40 -5z"/>
<path d="M2184 1139 c-24 -12 -44 -49 -44 -80 0 -27 26 -75 45 -83 8 -3 111
-6 229 -6 228 -1 244 2 265 47 17 38 13 70 -13 100 l-24 28 -219 2 c-138 1
-226 -2 -239 -8z"/>
<path d="M2239 2061 c-22 -23 -29 -39 -29 -70 0 -70 33 -111 90 -111 57 0 90
41 90 111 0 52 -43 99 -90 99 -22 0 -41 -9 -61 -29z"/>
</g>
</svg>
