<?xml version="1.0" standalone="no"?>
<!DOCTYPE svg PUBLIC "-//W3C//DTD SVG 20010904//EN"
 "http://www.w3.org/TR/2001/REC-SVG-20010904/DTD/svg10.dtd">
<svg version="1.0" xmlns="http://www.w3.org/2000/svg"
 width="311.000000pt" height="421.000000pt" viewBox="0 0 311.000000 421.000000"
 preserveAspectRatio="xMidYMid meet">

<g transform="translate(0.000000,421.000000) scale(0.100000,-0.100000)"
fill="#000000" stroke="none">
<path d="M1286 3639 c-39 -31 -56 -77 -56 -154 l0 -65 -212 -1 c-236 -1 -268
-7 -352 -66 -56 -39 -99 -98 -126 -170 -20 -54 -20 -66 -18 -1336 l3 -1282 27
-57 c29 -62 97 -136 149 -164 84 -43 98 -44 895 -44 824 0 816 0 904 55 67 42
128 121 150 194 20 65 20 88 18 1336 l-3 1270 -27 55 c-37 75 -107 146 -176
178 -56 26 -62 27 -284 30 l-228 3 0 85 c0 78 -2 86 -29 116 l-29 33 -289 3
c-285 3 -290 3 -317 -19z m424 -459 l0 -241 -117 3 -118 3 -3 238 -2 237 120
0 120 0 0 -240z m-478 -197 c5 -294 -9 -283 364 -283 368 0 354 -11 354 284
l0 196 195 0 c156 0 202 -3 225 -15 64 -33 60 47 60 -1300 0 -1360 4 -1277
-65 -1309 -29 -14 -120 -16 -769 -16 -796 0 -783 -1 -819 53 -16 24 -17 115
-17 1267 0 1134 1 1243 16 1266 32 49 54 53 261 54 l191 0 4 -197z"/>
<path d="M1061 2447 c-13 -6 -33 -24 -44 -39 -20 -27 -21 -42 -21 -545 -1
-491 0 -519 18 -546 39 -58 31 -57 574 -57 334 0 509 4 530 11 17 6 41 26 52
44 19 31 20 48 20 544 0 562 1 555 -60 586 -25 13 -102 15 -537 15 -383 0
-514 -3 -532 -13z m645 -255 c76 -39 124 -118 124 -206 0 -63 -10 -95 -47
-149 -23 -34 -24 -39 -11 -55 42 -47 58 -100 58 -192 l0 -90 -237 2 -238 3 -3
55 c-5 76 14 151 49 200 l30 41 -25 32 c-13 18 -32 56 -42 85 -49 153 81 310
247 298 30 -2 73 -13 95 -24z"/>
<path d="M1053 1000 c-40 -24 -53 -48 -53 -100 0 -48 22 -85 61 -106 43 -22
1016 -21 1063 1 60 29 83 103 51 165 -31 61 -25 60 -582 60 -485 0 -509 -1
-540 -20z"/>
</g>
</svg>
