<?xml version="1.0" standalone="no"?>
<!DOCTYPE svg PUBLIC "-//W3C//DTD SVG 20010904//EN"
 "http://www.w3.org/TR/2001/REC-SVG-20010904/DTD/svg10.dtd">
<svg version="1.0" xmlns="http://www.w3.org/2000/svg"
 width="279.000000pt" height="269.000000pt" viewBox="0 0 279.000000 269.000000"
 preserveAspectRatio="xMidYMid meet">

<g transform="translate(0.000000,269.000000) scale(0.100000,-0.100000)"
fill="#000000" stroke="none">
<path d="M242 2429 c-45 -13 -108 -79 -121 -126 -7 -25 -11 -268 -11 -709 l0
-672 28 -53 c22 -43 38 -59 81 -81 l53 -28 423 0 c372 0 425 2 439 16 20 19
20 29 0 48 -14 14 -68 16 -443 16 -418 0 -429 0 -455 21 -14 11 -31 29 -36 40
-14 26 -14 1373 0 1399 5 10 22 28 36 39 27 21 28 21 1154 21 1126 0 1127 0
1154 -21 14 -11 31 -29 36 -40 7 -13 11 -235 10 -654 0 -349 3 -652 6 -674 7
-44 34 -62 60 -40 13 10 14 102 12 695 l-3 682 -30 43 c-16 23 -48 52 -70 63
-40 21 -45 21 -1165 23 -690 1 -1138 -2 -1158 -8z"/>
<path d="M465 2070 c-11 -4 -31 -20 -45 -35 -23 -25 -25 -35 -28 -143 -2 -104
-1 -121 18 -150 32 -51 70 -62 222 -62 205 0 238 27 238 198 0 109 -15 153
-62 182 -29 18 -50 20 -178 19 -80 0 -154 -4 -165 -9z m125 -190 l0 -120 -48
0 c-55 0 -72 12 -72 52 0 22 5 28 22 28 21 0 58 26 58 41 0 16 -32 39 -56 39
-21 0 -24 5 -24 33 0 19 3 37 7 40 3 4 30 7 60 7 l53 0 0 -120z m188 108 c7
-7 12 -25 12 -40 0 -23 -4 -28 -24 -28 -24 0 -56 -23 -56 -40 0 -17 32 -40 56
-40 20 0 24 -5 24 -28 0 -40 -17 -52 -72 -52 l-48 0 0 120 0 120 48 0 c26 0
53 -5 60 -12z"/>
<path d="M1880 2064 c-56 -24 -99 -73 -116 -131 -21 -73 -1 -145 55 -196 53
-48 118 -60 290 -55 151 4 177 13 228 72 87 98 58 242 -59 300 -49 25 -60 26
-207 26 -117 -1 -165 -5 -191 -16z m396 -98 c28 -28 34 -42 34 -75 0 -23 -7
-55 -15 -71 -27 -52 -57 -60 -227 -60 -134 0 -157 2 -182 19 -55 36 -71 102
-41 161 27 53 53 59 234 60 l163 0 34 -34z"/>
<path d="M408 1429 c-27 -15 -26 -124 1 -139 40 -21 61 7 61 82 0 20 -7 44
-16 52 -18 19 -23 19 -46 5z"/>
<path d="M528 1429 c-27 -15 -26 -124 1 -139 25 -13 27 -13 45 6 32 31 14 145
-22 144 -4 0 -15 -5 -24 -11z"/>
<path d="M648 1429 c-27 -15 -26 -124 1 -139 25 -13 27 -13 45 6 32 31 14 145
-22 144 -4 0 -15 -5 -24 -11z"/>
<path d="M766 1424 c-25 -24 -22 -120 3 -134 25 -13 27 -13 45 6 33 32 14 144
-24 144 -5 0 -16 -7 -24 -16z"/>
<path d="M926 1424 c-21 -21 -21 -107 0 -128 19 -20 29 -20 48 0 33 32 14 144
-24 144 -5 0 -16 -7 -24 -16z"/>
<path d="M1046 1424 c-21 -21 -21 -107 0 -128 19 -20 29 -20 48 0 33 32 14
144 -24 144 -5 0 -16 -7 -24 -16z"/>
<path d="M1166 1424 c-21 -21 -21 -107 0 -128 19 -20 29 -20 48 0 33 32 14
144 -24 144 -5 0 -16 -7 -24 -16z"/>
<path d="M1286 1424 c-33 -32 -14 -144 24 -144 23 0 40 34 40 80 0 46 -17 80
-40 80 -5 0 -16 -7 -24 -16z"/>
<path d="M1774 1431 c-198 -32 -382 -167 -472 -346 -50 -102 -65 -168 -65
-290 0 -94 4 -122 27 -190 79 -230 252 -383 486 -431 315 -63 634 129 733 441
33 104 30 281 -6 383 -69 197 -213 341 -408 406 -85 28 -212 40 -295 27z m231
-86 c104 -27 183 -72 260 -149 115 -116 165 -237 165 -398 0 -160 -51 -281
-164 -393 -116 -115 -236 -165 -394 -165 -162 0 -284 51 -397 165 -110 111
-165 242 -165 395 0 255 172 477 421 544 71 19 200 20 274 1z"/>
<path d="M1566 1104 c-9 -8 -16 -20 -16 -26 0 -6 59 -71 132 -145 l132 -133
-132 -133 c-73 -74 -132 -137 -132 -141 0 -19 22 -46 38 -46 9 0 76 59 149
132 l133 132 133 -132 c74 -73 140 -132 148 -132 19 0 39 20 39 39 0 8 -59 74
-132 148 l-132 133 132 133 c73 73 132 138 132 144 0 15 -28 43 -42 43 -6 0
-71 -59 -145 -132 l-133 -132 -133 132 c-74 73 -139 132 -145 132 -6 0 -18 -7
-26 -16z"/>
<path d="M406 1104 c-21 -21 -20 -41 3 -54 13 -6 152 -10 385 -10 318 0 367 2
380 16 20 19 20 29 0 48 -13 14 -62 16 -384 16 -322 0 -371 -2 -384 -16z"/>
</g>
</svg>
