<?xml version="1.0" standalone="no"?>
<!DOCTYPE svg PUBLIC "-//W3C//DTD SVG 20010904//EN"
 "http://www.w3.org/TR/2001/REC-SVG-20010904/DTD/svg10.dtd">
<svg version="1.0" xmlns="http://www.w3.org/2000/svg"
 width="196.000000pt" height="186.000000pt" viewBox="0 0 196.000000 186.000000"
 preserveAspectRatio="xMidYMid meet">
<metadata>
Created by potrace 1.16, written by Peter Selinger 2001-2019
</metadata>
<g transform="translate(0.000000,186.000000) scale(0.100000,-0.100000)"
fill="#000000" stroke="none">
<path d="M875 1699 c-176 -27 -325 -107 -447 -238 -80 -86 -128 -172 -112
-198 24 -38 56 -22 105 53 189 286 551 384 858 233 66 -33 103 -60 166 -123
122 -122 183 -252 200 -431 l7 -70 -54 53 c-29 28 -63 52 -74 52 -24 0 -44
-18 -44 -40 0 -19 190 -210 209 -210 15 0 187 164 202 193 13 24 -6 57 -34 57
-12 0 -43 -21 -74 -52 l-53 -52 0 46 c0 219 -128 460 -316 594 -152 109 -363
161 -539 133z"/>
<path d="M907 1273 c-4 -3 -7 -84 -7 -179 0 -204 -16 -186 159 -182 96 3 116
6 125 21 8 12 8 22 0 35 -9 14 -29 18 -108 20 l-96 3 0 132 c0 90 -4 137 -12
145 -13 13 -50 16 -61 5z"/>
<path d="M168 1033 c-104 -102 -113 -115 -98 -143 18 -33 51 -24 106 31 l51
50 6 -84 c24 -301 228 -561 515 -656 272 -89 559 -17 767 193 129 130 166 225
93 234 -21 3 -31 -6 -58 -50 -210 -342 -672 -426 -982 -177 -152 122 -232 275
-253 479 l-6 65 53 -52 c30 -29 63 -53 74 -53 24 0 44 18 44 40 0 19 -191 210
-210 210 -7 0 -53 -39 -102 -87z"/>
</g>
</svg>
