<?xml version="1.0" standalone="no"?>
<!DOCTYPE svg PUBLIC "-//W3C//DTD SVG 20010904//EN"
 "http://www.w3.org/TR/2001/REC-SVG-20010904/DTD/svg10.dtd">
<svg version="1.0" xmlns="http://www.w3.org/2000/svg"
 width="512.000000pt" height="512.000000pt" viewBox="0 0 512.000000 512.000000"
 preserveAspectRatio="xMidYMid meet">
<metadata>
Created by potrace 1.16, written by Peter Selinger 2001-2019
</metadata>
<g transform="translate(0.000000,512.000000) scale(0.100000,-0.100000)"
fill="#000000" stroke="none">
<path d="M950 5097 c-57 -37 -72 -75 -80 -200 -13 -181 -63 -292 -184 -412
-112 -111 -236 -167 -401 -181 -88 -7 -106 -14 -148 -52 -42 -40 -49 -82 -37
-239 64 -818 304 -1616 680 -2263 396 -682 942 -1248 1619 -1683 97 -62 108
-67 161 -67 53 0 64 5 161 67 505 324 947 732 1298 1198 571 756 920 1714
1001 2748 12 157 5 199 -37 239 -42 38 -60 45 -148 52 -165 14 -289 70 -401
181 -121 120 -171 231 -184 412 -8 125 -23 163 -80 200 l-33 23 -1577 0 -1577
0 -33 -23z m2980 -321 c0 -13 12 -64 26 -112 75 -261 246 -468 484 -589 60
-30 184 -75 209 -75 41 -1 42 -10 26 -156 -144 -1251 -699 -2329 -1595 -3099
-120 -103 -319 -255 -432 -330 l-88 -58 -88 58 c-113 75 -312 227 -432 330
-896 770 -1451 1848 -1595 3099 -16 146 -15 155 26 156 25 0 149 45 209 75
238 121 409 328 484 589 14 48 26 99 26 112 l0 24 1370 0 1370 0 0 -24z"/>
<path d="M2325 4384 c-480 -89 -873 -394 -1058 -819 -85 -195 -120 -361 -120
-575 -1 -255 41 -429 160 -661 161 -315 469 -577 805 -688 192 -64 454 -87
648 -58 318 48 571 176 801 406 248 248 376 524 409 879 35 386 -91 765 -352
1059 -199 224 -443 369 -738 440 -136 32 -427 41 -555 17z m330 -314 c126 -14
207 -34 307 -74 332 -134 576 -418 657 -764 85 -363 -23 -745 -286 -1008 -164
-163 -335 -256 -565 -305 -139 -30 -347 -23 -486 15 -398 110 -693 421 -788
831 -29 125 -25 350 9 476 95 358 333 630 662 757 128 50 200 65 385 81 8 0
56 -4 105 -9z"/>
<path d="M3124 3460 c-12 -5 -194 -156 -405 -337 l-384 -329 -135 159 c-172
202 -217 227 -320 175 -77 -39 -109 -124 -75 -203 22 -54 398 -489 439 -509
44 -21 103 -20 146 2 53 26 934 786 948 817 7 14 12 49 12 78 0 93 -67 158
-162 156 -23 0 -53 -4 -64 -9z"/>
</g>
</svg>
