<?xml version="1.0" standalone="no"?>
<!DOCTYPE svg PUBLIC "-//W3C//DTD SVG 20010904//EN"
 "http://www.w3.org/TR/2001/REC-SVG-20010904/DTD/svg10.dtd">
<svg version="1.0" xmlns="http://www.w3.org/2000/svg"
 width="329.000000pt" height="305.000000pt" viewBox="0 0 329.000000 305.000000"
 preserveAspectRatio="xMidYMid meet">

<g transform="translate(0.000000,305.000000) scale(0.100000,-0.100000)"
fill="#000000" stroke="none">
<path d="M2165 2591 c-136 -36 -245 -176 -245 -316 l0 -54 -270 -168 c-148
-92 -272 -176 -276 -186 -7 -22 12 -47 36 -47 10 0 134 72 275 160 141 88 259
160 263 160 7 0 45 -61 40 -65 -25 -19 -620 -386 -622 -384 -1 2 -14 24 -28
49 -62 108 -184 191 -312 213 -282 48 -547 -217 -499 -498 22 -126 76 -216
243 -406 51 -57 111 -128 133 -156 21 -29 47 -53 57 -53 10 0 35 24 57 52 22
29 78 96 125 148 116 131 165 195 195 254 14 28 27 53 29 55 2 2 604 -369 622
-384 5 -4 -33 -65 -40 -65 -4 0 -123 72 -263 160 -141 88 -264 160 -274 160
-25 0 -44 -25 -37 -47 4 -10 128 -94 276 -186 l270 -168 0 -54 c0 -116 77
-237 185 -293 42 -22 63 -26 135 -26 103 0 160 25 231 101 147 157 101 398
-96 501 -42 22 -63 26 -135 26 -73 0 -92 -4 -137 -27 l-52 -27 -328 205 -328
204 1 91 1 91 327 205 326 204 53 -27 c45 -23 64 -27 137 -27 72 0 93 4 135
26 70 36 137 111 164 184 56 146 -15 316 -162 391 -53 26 -158 39 -212 24z
m146 -83 c89 -26 169 -135 169 -228 0 -61 -38 -138 -89 -181 -72 -63 -161 -75
-246 -35 -191 90 -191 342 0 432 55 26 107 30 166 12z m-1209 -660 c156 -72
245 -243 208 -399 -14 -60 -55 -146 -93 -197 -37 -49 -251 -292 -257 -292 -7
0 -166 179 -234 264 -27 34 -65 95 -85 136 -32 68 -36 83 -36 160 0 71 4 94
26 141 87 185 295 267 471 187z m1209 -860 c89 -26 169 -135 169 -228 0 -61
-38 -138 -89 -181 -72 -63 -161 -75 -246 -35 -191 90 -191 342 0 432 55 26
107 30 166 12z"/>
<path d="M877 1786 c-171 -63 -244 -244 -161 -397 53 -96 133 -144 244 -144
112 0 190 47 245 147 26 45 30 64 30 128 0 64 -4 83 -30 128 -32 59 -67 92
-129 124 -51 26 -148 33 -199 14z m145 -78 c22 -6 56 -29 77 -50 97 -96 71
-251 -52 -313 -64 -32 -110 -32 -174 0 -122 61 -149 218 -53 312 58 58 124 75
202 51z"/>
</g>
</svg>
