<?xml version="1.0" standalone="no"?>
<!DOCTYPE svg PUBLIC "-//W3C//DTD SVG 20010904//EN"
 "http://www.w3.org/TR/2001/REC-SVG-20010904/DTD/svg10.dtd">
<svg version="1.0" xmlns="http://www.w3.org/2000/svg"
 width="370.000000pt" height="348.000000pt" viewBox="0 0 370.000000 348.000000"
 preserveAspectRatio="xMidYMid meet">

<g transform="translate(0.000000,348.000000) scale(0.100000,-0.100000)"
fill="#000000" stroke="none">
<path d="M1694 2990 c-141 -26 -305 -110 -407 -208 -92 -90 -173 -234 -208
-372 -22 -87 -17 -268 10 -365 38 -134 93 -227 201 -336 81 -81 109 -102 190
-142 128 -63 211 -80 370 -75 107 4 137 9 213 35 111 39 181 81 269 162 109
101 184 225 224 372 26 96 24 271 -5 373 -91 327 -368 549 -701 561 -58 2
-128 0 -156 -5z m336 -116 c209 -69 363 -232 431 -454 33 -109 32 -265 -3
-373 -64 -194 -204 -347 -386 -420 -98 -40 -157 -50 -282 -45 -183 7 -311 62
-439 189 -79 78 -132 165 -168 274 -36 111 -38 275 -5 383 77 246 267 418 523
472 82 17 235 5 329 -26z"/>
<path d="M1786 2854 c-23 -23 -20 -51 9 -70 23 -15 27 -15 50 0 14 9 25 25 25
36 0 24 -26 50 -50 50 -10 0 -26 -7 -34 -16z"/>
<path d="M1376 2684 c-23 -23 -20 -51 9 -70 23 -15 27 -15 50 0 14 9 25 25 25
36 0 24 -26 50 -50 50 -10 0 -26 -7 -34 -16z"/>
<path d="M2196 2684 c-23 -23 -20 -51 9 -70 23 -15 27 -15 50 0 14 9 25 25 25
36 0 24 -26 50 -50 50 -10 0 -26 -7 -34 -16z"/>
<path d="M1792 2678 c-8 -8 -12 -65 -12 -190 0 -109 -4 -178 -10 -178 -13 0
-40 -54 -40 -82 0 -16 -37 -60 -122 -145 -116 -116 -121 -123 -110 -147 22
-48 49 -34 167 84 l110 110 5 -136 c5 -124 7 -138 25 -150 18 -12 24 -11 43 2
21 14 22 22 22 161 0 137 1 148 22 170 12 13 22 37 22 56 1 21 12 46 28 65 31
37 27 69 -9 78 -16 4 -30 0 -43 -11 -20 -18 -20 -16 -20 134 0 86 -5 161 -10
172 -12 21 -50 25 -68 7z"/>
<path d="M1206 2274 c-9 -8 -16 -22 -16 -30 0 -15 35 -54 48 -54 18 0 52 33
52 50 0 24 -26 50 -50 50 -10 0 -26 -7 -34 -16z"/>
<path d="M2366 2274 c-9 -8 -16 -22 -16 -30 0 -16 35 -54 50 -54 15 0 50 38
50 54 0 20 -28 46 -50 46 -10 0 -26 -7 -34 -16z"/>
<path d="M1376 1864 c-23 -23 -20 -51 9 -70 23 -15 27 -15 50 0 14 9 25 25 25
36 0 24 -26 50 -50 50 -10 0 -26 -7 -34 -16z"/>
<path d="M2196 1864 c-23 -23 -20 -51 9 -70 23 -15 27 -15 50 0 14 9 25 25 25
36 0 24 -26 50 -50 50 -10 0 -26 -7 -34 -16z"/>
<path d="M1786 1694 c-9 -8 -16 -22 -16 -30 0 -15 35 -54 48 -54 18 0 52 33
52 50 0 24 -26 50 -50 50 -10 0 -26 -7 -34 -16z"/>
<path d="M470 940 l0 -510 265 0 265 0 0 49 c0 28 5 53 10 56 6 3 43 -12 83
-33 354 -194 606 -292 748 -292 163 0 518 162 959 438 138 86 335 217 384 255
98 77 98 218 0 293 -33 26 -46 29 -108 29 -67 0 -78 -4 -211 -69 -160 -78
-406 -196 -410 -196 -2 0 -9 17 -15 38 -17 50 -54 98 -93 119 -26 14 -69 18
-223 23 -189 5 -190 5 -223 32 -73 62 -220 134 -331 162 -65 17 -512 42 -531
30 -18 -11 -39 18 -39 52 l0 34 -265 0 -265 0 0 -510z m440 0 l0 -420 -172 2
-173 3 -3 418 -2 417 175 0 175 0 0 -420z m645 306 c87 -24 210 -85 287 -144
l67 -50 195 -4 c189 -3 195 -4 220 -27 33 -31 41 -72 21 -110 -30 -60 -40 -61
-408 -61 -351 0 -357 -1 -357 -46 0 -44 9 -45 383 -42 l355 3 44 33 c41 30
248 136 547 278 158 76 195 81 235 33 29 -34 33 -74 11 -106 -28 -40 -393
-280 -659 -433 -257 -147 -516 -256 -636 -267 -68 -7 -167 19 -324 83 -136 56
-479 230 -512 261 l-24 22 0 294 c0 161 3 297 8 301 4 5 115 6 247 3 179 -3
255 -9 300 -21z"/>
<path d="M704 776 c-51 -22 -60 -81 -19 -121 28 -29 61 -32 93 -9 49 34 44
102 -9 129 -33 18 -26 18 -65 1z"/>
</g>
</svg>
