<?xml version="1.0" standalone="no"?>
<!DOCTYPE svg PUBLIC "-//W3C//DTD SVG 20010904//EN"
 "http://www.w3.org/TR/2001/REC-SVG-20010904/DTD/svg10.dtd">
<svg version="1.0" xmlns="http://www.w3.org/2000/svg"
 width="402.000000pt" height="373.000000pt" viewBox="0 0 402.000000 373.000000"
 preserveAspectRatio="xMidYMid meet">
<metadata>
Created by potrace 1.16, written by Peter Selinger 2001-2019
</metadata>
<g transform="translate(0.000000,373.000000) scale(0.100000,-0.100000)"
fill="#000000" stroke="none">
<path d="M2025 2905 c-22 -21 -25 -33 -25 -103 l0 -78 -87 -13 c-212 -30 -417
-130 -576 -281 -285 -268 -401 -672 -302 -1051 6 -26 4 -28 -60 -49 -37 -12
-76 -31 -87 -42 -30 -30 -20 -86 36 -196 131 -263 328 -462 581 -587 491 -243
1082 -148 1466 235 106 106 174 197 238 320 96 185 141 374 141 590 0 349
-126 656 -370 901 -199 200 -439 321 -720 364 -146 23 -206 20 -235 -10z m301
-155 c408 -93 730 -406 841 -817 25 -89 27 -114 27 -283 0 -169 -2 -194 -27
-283 -86 -318 -301 -583 -592 -727 -550 -272 -1201 -63 -1500 483 -21 37 -36
69 -34 71 2 2 148 55 324 119 176 63 329 119 339 123 17 6 18 4 13 -17 -4 -13
-10 -49 -13 -80 -6 -54 -7 -56 -48 -70 -47 -16 -66 -52 -50 -97 18 -50 46 -53
492 -50 l404 3 24 28 c13 15 24 37 24 47 0 29 -41 70 -72 72 -24 2 -28 7 -28
33 -1 106 -64 248 -150 337 l-56 58 60 62 c74 78 121 175 138 281 12 74 14 79
41 84 31 6 67 46 67 74 0 10 -11 31 -24 46 l-24 28 -176 3 -176 3 0 249 0 250
48 -6 c26 -3 83 -14 128 -24z m-326 -325 c0 -109 -3 -145 -12 -146 -7 0 -78 0
-158 0 -166 1 -209 -9 -224 -51 -16 -46 3 -81 52 -98 37 -13 42 -18 42 -45 0
-99 59 -232 143 -321 l60 -65 -24 -24 c-35 -36 -688 -273 -699 -254 -18 27
-32 186 -27 284 23 413 321 759 732 850 33 7 72 14 88 14 l27 1 0 -145z m293
-345 c-5 -103 -68 -208 -160 -267 l-56 -36 -35 19 c-99 53 -178 167 -189 275
l-5 54 223 -2 224 -2 -2 -41z m-167 -490 c57 -32 104 -83 134 -146 21 -42 46
-151 38 -160 -4 -4 -252 -6 -427 -4 -23 0 -24 2 -18 51 7 60 43 141 82 187 25
30 121 102 135 102 3 0 28 -13 56 -30z"/>
</g>
</svg>
