<?xml version="1.0" standalone="no"?>
<!DOCTYPE svg PUBLIC "-//W3C//DTD SVG 20010904//EN"
 "http://www.w3.org/TR/2001/REC-SVG-20010904/DTD/svg10.dtd">
<svg version="1.0" xmlns="http://www.w3.org/2000/svg"
 width="297.000000pt" height="309.000000pt" viewBox="0 0 297.000000 309.000000"
 preserveAspectRatio="xMidYMid meet">

<g transform="translate(0.000000,309.000000) scale(0.100000,-0.100000)"
fill="#000000" stroke="none">
<path d="M929 2517 c-295 -89 -544 -168 -553 -176 -15 -13 -16 -69 -14 -665
l3 -651 31 -76 c81 -200 271 -400 547 -576 121 -77 374 -202 472 -233 l70 -22
100 37 c123 45 330 151 450 230 269 176 450 369 529 564 l31 76 3 651 c3 614
2 651 -15 666 -16 14 -1028 323 -1092 333 -15 3 -243 -61 -562 -158z m1040
-92 c267 -80 494 -148 504 -151 17 -5 17 -38 15 -622 l-3 -617 -25 -60 c-108
-256 -476 -553 -882 -710 l-96 -38 -99 38 c-119 45 -275 127 -403 210 -242
157 -408 330 -480 500 l-25 60 -3 617 -3 617 38 11 c21 5 245 73 498 149 253
77 464 140 469 140 5 1 228 -64 495 -144z"/>
<path d="M1087 2231 c-214 -65 -393 -124 -398 -132 -5 -8 -9 -237 -9 -509 l0
-495 29 -60 c79 -166 316 -363 617 -511 72 -35 141 -64 154 -64 13 0 82 29
154 64 301 148 538 345 617 511 l29 60 0 497 c0 410 -2 499 -14 510 -10 10
-619 200 -781 244 -5 1 -185 -51 -398 -115z m648 -70 c132 -40 284 -86 338
-102 l97 -30 0 -467 0 -468 -31 -49 c-85 -134 -320 -314 -562 -431 l-97 -47
-107 52 c-248 121 -501 322 -568 451 -13 25 -15 101 -15 494 l0 466 93 27 c50
15 205 62 342 104 138 42 255 76 260 74 6 -1 118 -35 250 -74z"/>
<path d="M1264 1911 c-46 -28 -59 -52 -105 -188 -40 -121 -42 -124 -82 -144
-76 -38 -77 -40 -77 -156 0 -123 12 -157 69 -203 35 -28 41 -39 41 -71 0 -90
95 -94 102 -4 l3 40 265 0 265 0 3 -40 c7 -89 102 -87 102 2 0 30 7 42 41 71
58 50 69 83 69 205 0 116 -1 118 -76 155 -40 20 -42 24 -79 136 -70 214 -73
216 -325 216 -165 0 -188 -2 -216 -19z m385 -100 c17 -17 71 -160 71 -189 0
-9 -55 -12 -240 -12 -185 0 -240 3 -240 12 0 29 54 172 71 189 17 17 36 19
169 19 133 0 152 -2 169 -19z m166 -318 c62 -30 45 -43 -54 -43 -95 0 -121
-11 -121 -50 0 -39 26 -50 121 -50 71 0 89 -3 89 -14 0 -8 -10 -22 -22 -30
-19 -14 -70 -16 -348 -16 -278 0 -329 2 -348 16 -12 8 -22 22 -22 30 0 11 18
14 89 14 95 0 121 11 121 50 0 39 -26 50 -121 50 -98 0 -116 13 -56 43 27 13
77 16 334 16 264 1 307 -1 338 -16z"/>
</g>
</svg>
